<svg xmlns="http://www.w3.org/2000/svg" width="28" height="28" viewBox="0 0 28 28">
  <g id="グループ_3495" data-name="グループ 3495" transform="translate(-632 -6016)">
    <circle id="楕円形_153" data-name="楕円形 153" cx="14" cy="14" r="14" transform="translate(632 6016)" fill="#392425"/>
    <path id="_62_call_B" data-name="62_call_B" d="M809,266l-.685,2.05a12.079,12.079,0,0,1-6.365-6.365L804,261v-5h-5.965c-.02.33-.035.665-.035,1,0,.285.01.57.025.85a14.8,14.8,0,0,0,1.075,4.785,14.969,14.969,0,0,0,8.265,8.265,14.744,14.744,0,0,0,4.775,1.075h.01c.28.015.565.025.85.025.335,0,.67-.015,1-.035V266Zm4,3v1.97l-.8.005h-.01a13.606,13.606,0,0,1-3.565-.68c-.32-.1-.63-.215-.94-.345a14.074,14.074,0,0,1-7.635-7.635c-.13-.31-.245-.62-.345-.94a13.679,13.679,0,0,1-.68-3.575l.005-.8H803v3.28l-1.4.465-.95.315c.1.32.22.635.345.94a13.06,13.06,0,0,0,7,7c.305.125.62.245.94.345l.315-.95.465-1.4H813Z" transform="translate(-160 5766)" fill="#fff"/>
  </g>
</svg>
